<?xml version="1.0" encoding="utf-8"?>
<!-- Generator: Adobe Illustrator 22.1.0, SVG Export Plug-In . SVG Version: 6.00 Build 0)  -->
<svg version="1.1"   xmlns="http://www.w3.org/2000/svg" xmlns:xlink="http://www.w3.org/1999/xlink" x="0px" y="0px"
	 viewBox="0 0 748 748" style="enable-background:new 0 0 748 748;" xml:space="preserve">
<style type="text/css">
	.st0{fill:#4D4D4D;}
</style>
<g>
	<path class="st0" d="M565.4,215.6l24.9-24.9l17.6,17.6L583,233.2L565.4,215.6z"/>
	<path class="st0" d="M515.5,165.7l24.9-24.9l17.6,17.6l-24.9,24.9L515.5,165.7z"/>
	<path class="st0" d="M161.3,726.7c28.4,28.4,74.4,28.4,102.8,0l368.8-368.8c4.9-4.9,4.9-12.8,0-17.6l-28.6-28.6l140.8-140.8
		c4.9-4.9,4.9-12.8,0-17.6L595.5,3.7c-4.9-4.9-12.8-4.9-17.6,0L437.1,144.4l-28.6-28.6c-4.9-4.9-12.8-4.9-17.6,0L22,484.7
		c-28.4,28.4-28.4,74.4,0,102.8L161.3,726.7z M586.7,30.1l132,132l-19.8,19.8l-132-132L586.7,30.1z M549.3,67.5l132,132L586.7,294
		l-132-132L549.3,67.5z M39.7,502.3l360-360l206.8,206.8l-360,360c-18.6,18.6-48.9,18.6-67.5,0L39.7,569.8
		C21,551.2,21,521,39.7,502.3z"/>
	<path class="st0" d="M353.5,228l24.9-24.9l17.6,17.6l-24.9,24.9L353.5,228z"/>
	<path class="st0" d="M253.7,327.8l74.8-74.8l17.6,17.6l-74.8,74.8L253.7,327.8z"/>
</g>
</svg>
