<?xml version="1.0" encoding="utf-8"?>
<!-- Generator: Adobe Illustrator 22.1.0, SVG Export Plug-In . SVG Version: 6.00 Build 0)  -->
<svg version="1.1"   xmlns="http://www.w3.org/2000/svg" xmlns:xlink="http://www.w3.org/1999/xlink" x="0px" y="0px"
	 viewBox="0 0 750 750" style="enable-background:new 0 0 750 750;" xml:space="preserve">

<g>
	<path class="st0" d="M624.5,375c6.9,0,12.5-5.6,12.5-12.5v-350C637,5.6,631.4,0,624.5,0H212c-4.5,0-8.6,2.4-10.8,6.2l-87.5,150
		c-1.1,1.9-1.7,4.1-1.7,6.2V700c0,27.6,22.4,50,50,50h425c27.6,0,50-22.4,50-50V462.5c0-6.9-5.6-12.5-12.5-12.5H587v-75H624.5z
		 M612,350h-25v-75h25V350z M499.5,25h50v125h-50V25z M474.5,150h-50V25h50V150z M399.5,150h-50V25h50V150z M324.5,25v125h-50V25
		H324.5z M612,475v225c0,13.8-11.2,25-25,25H162c-13.8,0-25-11.2-25-25V165.9L219.2,25h30.3v137.5c0,6.9,5.6,12.5,12.5,12.5h300
		c6.9,0,12.5-5.6,12.5-12.5V25H612v225h-37.5c-6.9,0-12.5,5.6-12.5,12.5v200c0,6.9,5.6,12.5,12.5,12.5H612z"/>
</g>
</svg>
